<svg width="640" height="480" xmlns="http://www.w3.org/2000/svg" xmlns:svg="http://www.w3.org/2000/svg" stroke="null" style="vector-effect: non-scaling-stroke;">
 <!-- Created with SVG-edit - http://svg-edit.googlecode.com/ -->
 <title stroke="null" style="vector-effect: non-scaling-stroke;">Thermocouple</title>
 <g stroke="null">
  <title stroke="null">Layer 1</title>
  <rect stroke="#999999" opacity="0.2" id="svg_2" height="159.000007" width="282.000008" y="266.999993" x="171.999992" stroke-linecap="null" stroke-linejoin="null" stroke-dasharray="null" stroke-width="3" fill="#007fff"/>
  <ellipse stroke="#999999" style="vector-effect: non-scaling-stroke;" opacity="0.35" id="svg_5" ry="22" rx="143" cy="430" cx="313" stroke-linecap="null" stroke-linejoin="null" stroke-dasharray="null" stroke-width="3" fill="#007fff"/>
  <ellipse stroke="#999999" style="vector-effect: non-scaling-stroke;" opacity="0.35" id="svg_6" ry="19" rx="140.999996" cy="269.000001" cx="312.000004" stroke-linecap="null" stroke-linejoin="null" stroke-dasharray="null" stroke-width="3" fill="#007fff"/> 
  <line stroke="#999999" opacity="0.95" id="svg_7" y2="272" x2="172" y1="190.000006" x1="172" stroke-linecap="null" stroke-linejoin="null" stroke-dasharray="null" stroke-width="3" fill="none"/>
  <line stroke="#999999" opacity="0.95" id="svg_8" y2="272.499997" x2="454" y1="189.500001" x1="454" stroke-linecap="null" stroke-linejoin="null" stroke-dasharray="null" stroke-width="3" fill="none"/>
  <ellipse stroke="#999999" opacity="0.95" id="svg_9" ry="35.999999" rx="141.499986" cy="183.999999" cx="313.500016" stroke-linecap="null" stroke-linejoin="null" stroke-dasharray="null" stroke-width="3" fill="none"/>
  <line stroke="#999999" id="svg_10" y2="348" x2="307" y1="88" x1="302" opacity="0.95" stroke-linecap="null" stroke-linejoin="null" stroke-dasharray="null" stroke-width="3" fill="none"/>
  <line stroke="#999999" id="svg_11" y2="348.5" x2="333.5" y1="89.500007" x1="328.5" opacity="0.95" stroke-linecap="null" stroke-linejoin="null" stroke-dasharray="null" stroke-width="3" fill="none"/>
  <line stroke="#999999" id="svg_13" y2="366" x2="322" y1="348" x1="307" opacity="0.6" stroke-linecap="null" stroke-linejoin="null" stroke-dasharray="null" stroke-width="3" fill="none"/>
  <line stroke="#999999" id="svg_16" y2="366" x2="320" y1="346" x1="333" opacity="0.6" stroke-linecap="null" stroke-linejoin="null" stroke-dasharray="null" stroke-width="3" fill="none"/>
  <line stroke="#999999" id="svg_17" y2="143" x2="717" y1="143" x1="716" opacity="0.6" stroke-linecap="null" stroke-linejoin="null" stroke-dasharray="null" stroke-width="3" fill="none"/>
  <line stroke="#999999" id="svg_19" y2="89" x2="353" y1="88" x1="279" opacity="0.95" stroke-linecap="null" stroke-linejoin="null" stroke-dasharray="null" stroke-width="3" fill="none"/>
  <line stroke="#999999" id="svg_21" y2="61" x2="351" y1="87" x1="352" opacity="0.95" stroke-linecap="null" stroke-linejoin="null" stroke-dasharray="null" stroke-width="3" fill="none"/>
  <line stroke="#999999" id="svg_23" y2="60.999999" x2="279" y1="87" x1="279" opacity="0.95" stroke-linecap="null" stroke-linejoin="null" stroke-dasharray="null" stroke-width="3" fill="none"/>
  <line stroke="#999999" id="svg_24" y2="39" x2="265" y1="61" x1="279" opacity="0.95" stroke-linecap="null" stroke-linejoin="null" stroke-dasharray="null" stroke-width="3" fill="none"/>
  <line stroke="#999999" id="svg_25" y2="36" x2="368" y1="61" x1="350" opacity="0.95" stroke-linecap="null" stroke-linejoin="null" stroke-dasharray="null" stroke-width="3" fill="none"/>
  <line stroke="#999999" style="vector-effect: non-scaling-stroke;" id="svg_26" y2="38" x2="369" y1="39" x1="267" opacity="0.6" stroke-linecap="null" stroke-linejoin="null" stroke-dasharray="null" stroke-width="3" fill="none"/>
  <path stroke="#999999" id="svg_35" d="m1.00047,-2.49953l0,0c0,0.276142 0.559644,0.5 1.25,0.5c0.690356,0 1.25,-0.223858 1.25,-0.5l0,0c0,-0.276142 0.559644,-0.5 1.25,-0.5c0.690356,0 1.25,0.223858 1.25,0.5l0,4c0,-0.276142 -0.559644,-0.5 -1.25,-0.5c-0.690356,0 -1.25,0.223858 -1.25,0.5c0,0.276142 -0.559644,0.5 -1.25,0.5c-0.690356,0 -1.25,-0.223858 -1.25,-0.5l0,-4z" opacity="0.6" stroke-linecap="null" stroke-linejoin="null" stroke-dasharray="null" stroke-width="3" fill="none"/>
  <path stroke="#999999" d="m329,37c0,-0.801334 0,-1.700001 0,-2.599998c0,-0.900002 0.001221,-1.797028 0.5,-2.400002c0.542511,-0.655863 1.172516,-1.281792 1.721344,-1.878666c0.588531,-0.640036 1.128418,-1.279078 1.494659,-1.921333c0.486633,-0.853392 1.069183,-1.400255 1.716003,-2c0.639526,-0.592989 1.29892,-1.051634 1.957336,-1.636002c0.693176,-0.615227 1.034546,-1.377913 1.810669,-1.849333c0.676361,-0.410816 1.097046,-1.312067 2,-1.629333c0.852753,-0.299625 1.627106,-0.437267 2.152649,-1.032665c0.563263,-0.638138 1.277802,-0.884251 2.147339,-1.073502c0.846283,-0.184185 1.600006,-0.857666 2.5,-0.979166l0.799988,-0.085333" id="svg_42" opacity="0.95" stroke-linecap="null" stroke-linejoin="null" stroke-dasharray="null" stroke-width="3" fill="none"/>
  <path stroke="#999999" d="m303,38c0,-1 0,-1.799999 0,-2.700001c0,-0.899998 0,-1.799999 0,-2.700001c0,-0.899998 0,-1.799999 0,-2.699999c0,-0.9 -0.392975,-1.830359 0.085327,-2.614666c0.490082,-0.803642 0.656067,-1.511969 1.136017,-2.164c0.513977,-0.698248 1.31778,-0.997066 1.778656,-1.642168c0.49826,-0.697437 1.000977,-1.478197 1.600006,-2.079166c0.696625,-0.698874 0.876648,-1.659367 1.56665,-2.233334c0.653351,-0.54348 1.511749,-0.451902 2.11734,-1.082666c0.549988,-0.572872 1.142059,-1.161575 1.741333,-1.658667c0.61496,-0.510104 1.624268,-0.47827 2.027344,-1.129833c0.476196,-0.769752 1.255859,-1.159977 2.147339,-1.296833c0.915771,-0.140584 1.484314,-0.687425 2.435974,-1.024c0.835846,-0.295621 1.526917,-0.583581 2.478668,-0.890667c0.875702,-0.282548 1.585358,-0.731333 2.385345,-1.084c0.799988,-0.352667 1.600006,-0.8785 2.5,-1l0.799988,-0.085333" id="svg_48" opacity="0.95" stroke-linecap="null" stroke-linejoin="null" stroke-dasharray="null" stroke-width="3" fill="none"/>
 </g>
</svg>
