<svg width="640" height="480" xmlns="http://www.w3.org/2000/svg" xmlns:svg="http://www.w3.org/2000/svg">
 <!-- Created with SVG-edit - http://svg-edit.googlecode.com/ -->
 <title>Thermocouple</title>
 <g>
  <title>Layer 1</title>
  <path stroke="#999999" id="svg_8" d="m176.000003,251.500002c0,-12.983428 54.372927,-23.500002 121.499998,-23.500002c67.127071,0 121.499998,10.516573 121.499998,23.500002c0,12.983428 -54.372927,23.500002 -121.499998,23.500002c-67.127071,0 -121.499998,-10.516573 -121.499998,-23.500002z" stroke-linecap="null" stroke-linejoin="null" stroke-dasharray="null" stroke-width="3" fill="none"/>
  <ellipse stroke="#003f7f" opacity="0.5" id="svg_10" ry="17" rx="121.000002" cy="312.5" cx="296.500002" stroke-linecap="null" stroke-linejoin="null" stroke-dasharray="null" stroke-width="3" fill="#007fff"/>
  <ellipse stroke="#003f7f" opacity="0.5" id="svg_17" ry="17" rx="120.500006" cy="444" cx="298.000006" stroke-linecap="null" stroke-linejoin="null" stroke-dasharray="null" stroke-width="5" fill="#007fff"/>
  <line id="svg_21" y2="330" x2="221" y1="29" x1="215" stroke-linecap="null" stroke-linejoin="null" stroke-dasharray="null" stroke-width="4" stroke="#0000ff" fill="none"/>
  <line id="svg_22" y2="330.5" x2="269" y1="29.5" x1="263" stroke-linecap="null" stroke-linejoin="null" stroke-dasharray="null" stroke-width="5" stroke="#999999" fill="none"/>
  <line id="svg_23" y2="328" x2="325" y1="90" x1="321" stroke-linecap="null" stroke-linejoin="null" stroke-dasharray="null" stroke-width="4" stroke="#ff0000" fill="none"/>
  <line id="svg_24" y2="326" x2="370" y1="88" x1="366" stroke-linecap="null" stroke-linejoin="null" stroke-dasharray="null" stroke-width="5" stroke="#999999" fill="none"/>
  <line id="svg_30" y2="361" x2="244" y1="327" x1="220" stroke-linecap="null" stroke-linejoin="null" stroke-dasharray="null" stroke-width="4" stroke="#0000bf" fill="none"/>
  <line id="svg_31" y2="363" x2="243" y1="329" x1="268" stroke-linecap="null" stroke-linejoin="null" stroke-dasharray="null" stroke-width="5" stroke="#999999" fill="none"/>
  <line id="svg_34" y2="361" x2="343" y1="326" x1="325" stroke-linecap="null" stroke-linejoin="null" stroke-dasharray="null" stroke-width="4" stroke="#ff0000" fill="none"/>
  <line id="svg_35" y2="363" x2="344" y1="325" x1="370" stroke-linecap="null" stroke-linejoin="null" stroke-dasharray="null" stroke-width="4" stroke="#999999" fill="none"/>
  <line id="svg_36" y2="95" x2="68" y1="91" x1="319" stroke-linecap="null" stroke-linejoin="null" stroke-dasharray="null" stroke-width="4" stroke="#ff0000" fill="none"/>
  <line id="svg_37" y2="31" x2="62" y1="30" x1="213" stroke-linecap="null" stroke-linejoin="null" stroke-dasharray="null" stroke-width="4" stroke="#0000ff" fill="none"/>
  <line id="svg_39" y2="68" x2="23" y1="29" x1="63" stroke-linecap="null" stroke-linejoin="null" stroke-dasharray="null" stroke-width="4" stroke="#0000ff" fill="none"/>
  <line id="svg_40" y2="96" x2="70" y1="68" x1="23" stroke-linecap="null" stroke-linejoin="null" stroke-dasharray="null" stroke-width="4" stroke="#ff0000" fill="none"/>
  <line stroke="#999999" id="svg_41" y2="29" x2="490.000008" y1="29" x1="263" stroke-linecap="null" stroke-linejoin="null" stroke-dasharray="null" stroke-width="4" fill="none"/>
  <line stroke="#999999" id="svg_42" y2="90" x2="483.999996" y1="90" x1="366" stroke-linecap="null" stroke-linejoin="null" stroke-dasharray="null" stroke-width="4" fill="none"/>
  <ellipse id="svg_47" ry="31.5" rx="30" cy="59.5" cx="495" stroke-linecap="null" stroke-linejoin="null" stroke-dasharray="null" stroke-width="4" stroke="#333333" fill="none"/>
  <text xml:space="preserve" text-anchor="middle" font-family="serif" font-size="24" id="svg_50" y="60" x="507" opacity="0.5" stroke-linecap="null" stroke-linejoin="null" stroke-dasharray="null" stroke-width="0" stroke="#999999" fill="#000000"/>
  <text style="cursor: move;" fill="#000000" stroke-width="0" x="500.670396" y="55.591837" id="svg_1" font-size="24" font-family="serif" text-anchor="middle" xml:space="preserve" transform="matrix(1.607785235015001,0,0,1.884615421295166,-311.0823782593153,-29.19230890274048) " stroke="#000000">V</text>
  <path stroke="#000000" fill="#000000" stroke-width="0" stroke-dasharray="null" stroke-linejoin="null" stroke-linecap="null" d="m431.998441,39.96432l3.63539,0l0,-3.96588l3.72922,0l0,3.96588l3.63539,0l0,4.06824l-3.63539,0l0,3.96588l-3.72922,0l0,-3.96588l-3.63539,0l0,-4.06824z" id="svg_2"/>
  <line stroke="#000000" fill="none" stroke-dasharray="null" stroke-linejoin="null" stroke-linecap="null" x1="431" y1="74" x2="447" y2="74" id="svg_3" stroke-width="5"/>
  <path fill="#000000" stroke-width="0" stroke-dasharray="null" stroke-linejoin="null" stroke-linecap="null" d="m87.5,42.96588l5.61833,0l0,-3.96588l5.76334,0l0,3.96588l5.61833,0l0,4.06824l-5.61833,0l0,3.96588l-5.76334,0l0,-3.96588l-5.61833,0l0,-4.06824z" stroke="#000000" id="svg_6"/>
  <line fill="none" stroke="#000000" stroke-dasharray="null" stroke-linejoin="null" stroke-linecap="null" x1="87" y1="81" x2="103" y2="81" stroke-width="5" id="svg_7"/>
  <rect stroke="#007fff" opacity="0.15" id="svg_9" height="129.000004" width="244.000004" y="314.999996" x="174.999995" stroke-linecap="null" stroke-linejoin="null" stroke-dasharray="null" stroke-width="2" fill="#007fff"/>
  <text stroke="#999999" transform="matrix(0.70985310925877,0,0,0.5328433344572225,32.765596187699394,47.59774562351457) " xml:space="preserve" text-anchor="middle" font-family="serif" font-size="24" id="svg_12" y="121.210526" x="179.382678" stroke-linecap="null" stroke-linejoin="null" stroke-dasharray="null" stroke-width="0" fill="#000000">IRON</text>
  <text stroke="#999999" transform="matrix(0.4864533245563507,0,0,0.692307710647583,71.16633538296446,-3.384615182876587) " xml:space="preserve" text-anchor="middle" font-family="serif" font-size="24" id="svg_14" y="76.444443" x="183.997478" stroke-linecap="null" stroke-linejoin="null" stroke-dasharray="null" stroke-width="0" fill="#000000">CONSTANTAN</text>
  <text xml:space="preserve" text-anchor="middle" font-family="serif" font-size="24" id="svg_15" y="77" x="15" stroke-linecap="null" stroke-linejoin="null" stroke-dasharray="null" stroke-width="0" stroke="#999999" fill="#000000">T</text>
  <line stroke="#999999" id="svg_19" y2="312" x2="176" y1="250" x1="175" stroke-linecap="null" stroke-linejoin="null" stroke-dasharray="null" stroke-width="3" fill="none"/>
  <line id="svg_20" y2="312" x2="418" y1="251" x1="418" stroke-linecap="null" stroke-linejoin="null" stroke-dasharray="null" stroke-width="3" stroke="#999999" fill="none"/>
  <line id="svg_25" y2="249" x2="829" y1="248" x1="827" stroke-linecap="null" stroke-linejoin="null" stroke-dasharray="null" stroke-width="2" stroke="#007fff" fill="none"/>
 </g>
</svg>
